# xmcd CD database file
#
# Track frame offsets:
#	150
#	41200
#	64920
#	82985
#	113010
#	130585
#	151715
#	180615
#	200890
#	223095
#
# Disc length: 3274 seconds
#
# Revision: 0
# Processed by: cddbd v1.5.2PL0 Copyright (c) Steve Scherf et al.
# Submitted via: CDex 1.51
#
DISCID=890cc80a
DTITLE=Fredric Zimmerman - Alex Zepeda - Duets, Vol 1 - Standards
DYEAR=2000
DGENRE=Jazz
TTITLE0=In a Sentimental Mood
TTITLE1=Think Of One
TTITLE2=Fall
TTITLE3=Day Dream
TTITLE4=Eronel
TTITLE5=Come Sunday
TTITLE6=Fly Me To The Moon
TTITLE7=Monk's Mood
TTITLE8=Spring is Here
TTITLE9=Round Midnight
EXTD=YEAR: 2000
EXTT0=
EXTT1=
EXTT2=
EXTT3=
EXTT4=
EXTT5=
EXTT6=
EXTT7=
EXTT8=
EXTT9=
PLAYORDER=
